<svg xmlns="http://www.w3.org/2000/svg" width="222.08" height="47.867" viewBox="0 0 222.08 47.867">
  <g id="Group_681" data-name="Group 681" transform="translate(-276.681 -235.945)">
    <g id="Group_497" data-name="Group 497" transform="translate(276.681 235.945)">
      <path id="Path_1938" data-name="Path 1938" d="M400.624,249.645a1.951,1.951,0,0,0,.312,1.157,2.14,2.14,0,0,0,.786.683,3.49,3.49,0,0,0,1.031.336,6.563,6.563,0,0,0,1.088.092h3.589a3.173,3.173,0,0,0,1.645-.289.8.8,0,0,0,.418-.637.9.9,0,0,0-.36-.648,6.852,6.852,0,0,0-.9-.671q-.545-.348-1.171-.776a7.83,7.83,0,0,1-1.169-.985,5,5,0,0,1-.9-1.273,3.672,3.672,0,0,1-.36-1.668,4.069,4.069,0,0,1,.441-1.91,4.247,4.247,0,0,1,1.169-1.413,5.337,5.337,0,0,1,1.689-.868,6.7,6.7,0,0,1,2-.3,7.282,7.282,0,0,1,2.676.451,4.506,4.506,0,0,1,1.818,1.239c.077.093.054.2-.07.324L412.6,244.5a.242.242,0,0,1-.325-.024,2.733,2.733,0,0,0-.937-.544,3.22,3.22,0,0,0-.983-.15,2.016,2.016,0,0,0-1.1.3,1.045,1.045,0,0,0-.475.949,1.414,1.414,0,0,0,.383.961,5.806,5.806,0,0,0,.95.834q.566.405,1.239.845a9.2,9.2,0,0,1,1.239.974,5.248,5.248,0,0,1,.95,1.192,3.034,3.034,0,0,1,.379,1.54,3.428,3.428,0,0,1-1.3,2.837,6.091,6.091,0,0,1-3.845,1.03h-5.4a11.174,11.174,0,0,1-3.08-.369,5.542,5.542,0,0,1-2.083-1.066,4.172,4.172,0,0,1-1.194-1.679,6.091,6.091,0,0,1-.382-2.211,10.006,10.006,0,0,1,.278-2.247,8.177,8.177,0,0,1,.857-2.223c.061-.107.185-.139.371-.093l3.1.834a.218.218,0,0,1,.163.139.262.262,0,0,1-.023.184,11.358,11.358,0,0,0-.534,1.389A5.873,5.873,0,0,0,400.624,249.645Zm1.782,9.912a.2.2,0,0,1-.231-.232v-2.57a.2.2,0,0,1,.231-.231h2.709a.206.206,0,0,1,.233.231v2.57a.206.206,0,0,1-.233.232Zm3.822,0a.206.206,0,0,1-.233-.232v-2.57a.205.205,0,0,1,.233-.231h2.709a.2.2,0,0,1,.231.231v2.57a.2.2,0,0,1-.231.232Z" transform="translate(-302.205 -236.909)" fill="#33479c"/>
      <path id="Path_1939" data-name="Path 1939" d="M422.279,245.587a.205.205,0,0,1-.233-.232V242.53a.205.205,0,0,1,.233-.231h4.331a4.339,4.339,0,0,1,3.141,1.019,4.252,4.252,0,0,1,1.049,3.173V248c.031.124.072.263.127.417a1.372,1.372,0,0,0,.244.427,1.175,1.175,0,0,0,.45.325,1.911,1.911,0,0,0,.753.128h.671q.926,0,.927,1.644a2.737,2.737,0,0,1-.22,1.216.739.739,0,0,1-.708.429,4.769,4.769,0,0,1-1.656-.254,1.2,1.2,0,0,0-2.372-.035,5.118,5.118,0,0,1-1.828.29h-5.816a.2.2,0,0,1-.231-.232v-2.825a.2.2,0,0,1,.231-.231H425.1a3.751,3.751,0,0,0,.879-.082.928.928,0,0,0,.486-.265.914.914,0,0,0,.208-.464,3.991,3.991,0,0,0,.048-.671v-.787a1.27,1.27,0,0,0-.453-1.123,2.383,2.383,0,0,0-1.355-.313Z" transform="translate(-307.419 -237.297)" fill="#33479c"/>
      <path id="Path_1940" data-name="Path 1940" d="M436.863,244.129a8.424,8.424,0,0,1,1.956-1.308,5.874,5.874,0,0,1,2.582-.521,7.13,7.13,0,0,1,2.565.417,4.673,4.673,0,0,1,1.782,1.169,4.76,4.76,0,0,1,1.035,1.806,7.5,7.5,0,0,1,.337,2.3,1.112,1.112,0,0,0,.464.973,1.937,1.937,0,0,0,1.135.324h.649q.926,0,.925,1.644a2.7,2.7,0,0,1-.22,1.216.738.738,0,0,1-.705.429,4.636,4.636,0,0,1-1.7-.279,2.432,2.432,0,0,1-1.2-1.157,2.526,2.526,0,0,1-1.443,1.157,7.344,7.344,0,0,1-2.141.279h-6.9a.779.779,0,0,1-.694-.347,2.418,2.418,0,0,1-.233-1.251,2.963,2.963,0,0,1,.21-1.262.733.733,0,0,1,.717-.428h5.326a2.119,2.119,0,0,0,1.378-.324,1.554,1.554,0,0,0,.36-1.181,3.093,3.093,0,0,0-.1-.811,2.084,2.084,0,0,0-.335-.707,1.648,1.648,0,0,0-.615-.5,2.143,2.143,0,0,0-.936-.185,2.671,2.671,0,0,0-1.251.278,6.176,6.176,0,0,0-1,.648.239.239,0,0,1-.324.024l-1.574-2.038a.719.719,0,0,1-.1-.184A.166.166,0,0,1,436.863,244.129Z" transform="translate(-310.379 -237.297)" fill="#33479c"/>
      <path id="Path_1941" data-name="Path 1941" d="M452.958,251.229a.779.779,0,0,1-.694-.347,2.357,2.357,0,0,1-.233-1.228q0-1.713.927-1.713H454.3a1.164,1.164,0,0,0,.846-.267,1.354,1.354,0,0,0,.265-.961v-5.164a.205.205,0,0,1,.233-.231h3.5a.2.2,0,0,1,.231.231v6.763a3.275,3.275,0,0,1-.624,2.211,2.662,2.662,0,0,1-2.085.707Zm.972-12.251a.2.2,0,0,1-.231-.231v-2.57a.2.2,0,0,1,.231-.231h2.71a.206.206,0,0,1,.233.231v2.57a.206.206,0,0,1-.233.231Zm3.822,0a.2.2,0,0,1-.233-.231v-2.57a.205.205,0,0,1,.233-.231h2.71a.2.2,0,0,1,.231.231v2.57a.2.2,0,0,1-.231.231Z" transform="translate(-313.991 -235.945)" fill="#33479c"/>
      <path id="Path_1942" data-name="Path 1942" d="M283.859,276v-1a.205.205,0,0,1,.233-.231h3.473a.2.2,0,0,1,.231.231v6.762a1.342,1.342,0,0,0,.267.961,1.156,1.156,0,0,0,.845.267h.6q.926,0,.925,1.644a2.659,2.659,0,0,1-.22,1.287.77.77,0,0,1-.705.357h-2.943a3.951,3.951,0,0,1-1.77-.324,1.778,1.778,0,0,1-.846-1.321,3.723,3.723,0,0,1-1.214.627,4.91,4.91,0,0,1-1.425.208,6.212,6.212,0,0,1-1.759-.244,3.822,3.822,0,0,1-1.472-.8,3.988,3.988,0,0,1-1.018-1.448,5.483,5.483,0,0,1-.382-2.165,5.779,5.779,0,0,1,.416-2.362,3.866,3.866,0,0,1,1.1-1.471,4.064,4.064,0,0,1,1.541-.764A7.047,7.047,0,0,1,281.5,276Zm-4.793-2.895a.2.2,0,0,1-.232-.232V270.3a.2.2,0,0,1,.232-.232h2.71a.2.2,0,0,1,.231.232v2.57a.2.2,0,0,1-.231.232Zm3.1,9.077a1.95,1.95,0,0,0,1.18-.371,1.443,1.443,0,0,0,.509-1.251v-1.273h-1.645a2.146,2.146,0,0,0-1.239.313,1.358,1.358,0,0,0-.45,1.192,1.169,1.169,0,0,0,.487,1.1A2.214,2.214,0,0,0,282.17,282.179Zm.716-9.077a.2.2,0,0,1-.231-.232V270.3a.2.2,0,0,1,.231-.232h2.71a.206.206,0,0,1,.233.232v2.57a.206.206,0,0,1-.233.232Z" transform="translate(-276.681 -243.206)" fill="#33479c"/>
      <path id="Path_1943" data-name="Path 1943" d="M295.3,278.3a.2.2,0,0,1,.231-.231h3.5a.2.2,0,0,1,.231.231v5.281a.949.949,0,0,0,.427.8,1.948,1.948,0,0,0,1.171.313h.67q.926,0,.927,1.644a2.711,2.711,0,0,1-.22,1.217.741.741,0,0,1-.708.428,4.54,4.54,0,0,1-1.5-.22,2.182,2.182,0,0,1-1.087-.938,1.913,1.913,0,0,1-.512.627,2.056,2.056,0,0,1-.716.346,4.588,4.588,0,0,1-.973.152c-.371.022-.786.034-1.25.034h-2.617a.779.779,0,0,1-.694-.346,2.58,2.58,0,0,1-.233-1.321,2.615,2.615,0,0,1,.22-1.25.759.759,0,0,1,.708-.371h1.319a.986.986,0,0,0,.893-.347,2.488,2.488,0,0,0,.219-1.228Zm-1.32,14.475a.2.2,0,0,1-.231-.231v-2.571a.205.205,0,0,1,.231-.233h2.709a.207.207,0,0,1,.233.233v2.571a.206.206,0,0,1-.233.231Zm3.822,0a.205.205,0,0,1-.233-.231v-2.571a.207.207,0,0,1,.233-.233h2.709a.205.205,0,0,1,.231.233v2.571a.2.2,0,0,1-.231.231Z" transform="translate(-279.929 -244.908)" fill="#33479c"/>
      <path id="Path_1944" data-name="Path 1944" d="M303.876,287.981a.755.755,0,0,1-.694-.383,2.52,2.52,0,0,1-.233-1.262,2.706,2.706,0,0,1,.219-1.262.755.755,0,0,1,.708-.382h.509a1.16,1.16,0,0,0,.846-.267,1.353,1.353,0,0,0,.267-.961V278.3a.2.2,0,0,1,.231-.231H309.2a.2.2,0,0,1,.231.231v6.763a3.276,3.276,0,0,1-.624,2.211,2.666,2.666,0,0,1-2.085.706Zm1.621,4.771a.206.206,0,0,1-.233-.233v-2.569a.206.206,0,0,1,.233-.233h3.519a.2.2,0,0,1,.231.233v2.569a.205.205,0,0,1-.231.233Z" transform="translate(-282.27 -244.908)" fill="#33479c"/>
      <path id="Path_1945" data-name="Path 1945" d="M323.914,270.888a.2.2,0,0,1,.231-.231h3.473a.206.206,0,0,1,.233.231v11.185a1.218,1.218,0,0,0,.472.753,1.843,1.843,0,0,0,1.124.29h.65q.926,0,.925,1.644a2.749,2.749,0,0,1-.217,1.217.746.746,0,0,1-.708.427,4.506,4.506,0,0,1-1.459-.22,2.306,2.306,0,0,1-1.135-.916,1.768,1.768,0,0,1-1.135.938,8.326,8.326,0,0,1-2.038.2H313.771a.2.2,0,0,1-.233-.231v-2.826a.2.2,0,0,1,.233-.231h3.263v-8.963a.206.206,0,0,1,.233-.231h3.473a.2.2,0,0,1,.231.231v8.963H322.8a1,1,0,0,0,.88-.336,2.2,2.2,0,0,0,.233-1.193Z" transform="translate(-284.523 -243.331)" fill="#33479c"/>
      <path id="Path_1946" data-name="Path 1946" d="M340.278,277.094a18.634,18.634,0,0,1,2.193-.683,10.362,10.362,0,0,1,2.5-.29,9.565,9.565,0,0,1,2.379.278,4.55,4.55,0,0,1,1.854.938,4.3,4.3,0,0,1,1.208,1.737,7.206,7.206,0,0,1,.429,2.676,1.231,1.231,0,0,0,.439,1.019,1.826,1.826,0,0,0,1.157.347h.652c.615,0,.927.548.927,1.644a2.741,2.741,0,0,1-.222,1.217.736.736,0,0,1-.705.427,4.551,4.551,0,0,1-1.714-.29,2.465,2.465,0,0,1-1.208-1.192,2.621,2.621,0,0,1-1.542,1.181,9.569,9.569,0,0,1-2.655.3h-4.94a1.843,1.843,0,0,1-1.555-.579,2.692,2.692,0,0,1-1.4.5c-.565.054-1.194.082-1.891.082h-1.83a.782.782,0,0,1-.694-.346,2.613,2.613,0,0,1-.231-1.321,2.66,2.66,0,0,1,.209-1.32.809.809,0,0,1,.716-.3h1.113a.659.659,0,0,0,.731-.464,5.212,5.212,0,0,0,.126-1.3V270.888a.2.2,0,0,1,.231-.231h3.5a.2.2,0,0,1,.231.231Zm3.822,2.316a7.723,7.723,0,0,0-2.026.267,14.764,14.764,0,0,0-1.819.613v1.992c0,.138,0,.282-.009.427s-.014.283-.014.406h4.125a10.3,10.3,0,0,0,1.226-.058,1.71,1.71,0,0,0,.728-.231.871.871,0,0,0,.362-.486,3.244,3.244,0,0,0,.091-.845,3.034,3.034,0,0,0-.118-.9,1.3,1.3,0,0,0-.416-.65,2.107,2.107,0,0,0-.819-.394A5.241,5.241,0,0,0,344.1,279.41Z" transform="translate(-288.755 -243.331)" fill="#33479c"/>
      <path id="Path_1947" data-name="Path 1947" d="M358.118,286.4a.763.763,0,0,1-.694-.371,2.489,2.489,0,0,1-.233-1.251,2.724,2.724,0,0,1,.222-1.285.753.753,0,0,1,.705-.382h.509a1.16,1.16,0,0,0,.845-.267,1.353,1.353,0,0,0,.267-.961v-11a.2.2,0,0,1,.231-.231h3.473a.205.205,0,0,1,.233.231v12.6a3.279,3.279,0,0,1-.626,2.211,2.662,2.662,0,0,1-2.083.706Z" transform="translate(-293.812 -243.331)" fill="#33479c"/>
      <path id="Path_1948" data-name="Path 1948" d="M372.6,286.173a.2.2,0,0,1-.231.231H368.9a.2.2,0,0,1-.233-.231V270.888a.2.2,0,0,1,.233-.231h3.473a.2.2,0,0,1,.231.231Z" transform="translate(-296.253 -243.331)" fill="#33479c"/>
      <path id="Path_1949" data-name="Path 1949" d="M390.464,276v-1a.2.2,0,0,1,.231-.231h3.474a.2.2,0,0,1,.231.231v6.762a1.353,1.353,0,0,0,.267.961,1.159,1.159,0,0,0,.845.267h.6q.926,0,.927,1.644a2.653,2.653,0,0,1-.222,1.287.768.768,0,0,1-.705.357h-2.939a3.959,3.959,0,0,1-1.774-.324,1.767,1.767,0,0,1-.843-1.321,3.753,3.753,0,0,1-1.217.627,4.892,4.892,0,0,1-1.424.208,6.216,6.216,0,0,1-1.759-.244,3.8,3.8,0,0,1-1.47-.8,3.955,3.955,0,0,1-1.02-1.448,5.468,5.468,0,0,1-.383-2.165,5.8,5.8,0,0,1,.416-2.362,3.857,3.857,0,0,1,1.1-1.471,4.055,4.055,0,0,1,1.54-.764A7.051,7.051,0,0,1,388.1,276ZM385.67,273.1a.206.206,0,0,1-.233-.232V270.3a.206.206,0,0,1,.233-.232h2.709a.2.2,0,0,1,.231.232v2.57a.2.2,0,0,1-.231.232Zm3.1,9.077a1.953,1.953,0,0,0,1.181-.371,1.444,1.444,0,0,0,.511-1.251v-1.273h-1.644a2.137,2.137,0,0,0-1.24.313,1.358,1.358,0,0,0-.452,1.192,1.174,1.174,0,0,0,.487,1.1A2.212,2.212,0,0,0,388.773,282.179Zm.717-9.077a.2.2,0,0,1-.231-.232V270.3a.2.2,0,0,1,.231-.232H392.2a.2.2,0,0,1,.231.232v2.57a.2.2,0,0,1-.231.232Z" transform="translate(-299.364 -243.206)" fill="#33479c"/>
      <path id="Path_1950" data-name="Path 1950" d="M399.419,287.981a.782.782,0,0,1-.694-.346,2.362,2.362,0,0,1-.233-1.228q0-1.715.927-1.714h1.344a1.163,1.163,0,0,0,.845-.267,1.354,1.354,0,0,0,.265-.961V278.3a.206.206,0,0,1,.233-.231h3.5a.2.2,0,0,1,.231.231v6.763a3.275,3.275,0,0,1-.624,2.211,2.664,2.664,0,0,1-2.085.706Zm.557,4.794a.2.2,0,0,1-.233-.231v-2.571a.206.206,0,0,1,.233-.233h2.709a.205.205,0,0,1,.231.233v2.571a.2.2,0,0,1-.231.231Zm3.82,0a.2.2,0,0,1-.231-.231v-2.571a.206.206,0,0,1,.231-.233H406.5a.206.206,0,0,1,.233.233v2.571a.2.2,0,0,1-.233.231Z" transform="translate(-302.599 -244.908)" fill="#33479c"/>
      <path id="Path_1951" data-name="Path 1951" d="M411.9,280.887a.205.205,0,0,1-.233-.232V277.83a.205.205,0,0,1,.233-.231h4.33a4.34,4.34,0,0,1,3.141,1.019,4.251,4.251,0,0,1,1.049,3.172V283.3c.031.124.072.262.127.417a1.392,1.392,0,0,0,.244.428,1.166,1.166,0,0,0,.45.324,1.9,1.9,0,0,0,.753.128h.672q.926,0,.927,1.644a2.744,2.744,0,0,1-.22,1.217.741.741,0,0,1-.708.427,4.768,4.768,0,0,1-1.656-.253,1.2,1.2,0,0,0-2.372-.036,5.1,5.1,0,0,1-1.828.29h-5.816a.2.2,0,0,1-.231-.231v-2.826a.2.2,0,0,1,.231-.231h3.729a3.751,3.751,0,0,0,.879-.082.927.927,0,0,0,.487-.265.918.918,0,0,0,.208-.464,4,4,0,0,0,.048-.672v-.787a1.27,1.27,0,0,0-.453-1.123,2.382,2.382,0,0,0-1.355-.313Z" transform="translate(-305.21 -244.808)" fill="#33479c"/>
      <path id="Path_1952" data-name="Path 1952" d="M425.66,286.529a.76.76,0,0,1-.694-.383,2.55,2.55,0,0,1-.231-1.262,2.673,2.673,0,0,1,.219-1.262.754.754,0,0,1,.706-.382h.511a1.163,1.163,0,0,0,.845-.267,1.354,1.354,0,0,0,.265-.961v-5.164a.2.2,0,0,1,.233-.231h3.474a.2.2,0,0,1,.231.231v6.763a3.279,3.279,0,0,1-.624,2.211,2.671,2.671,0,0,1-2.085.706Zm1.807-12.251a.2.2,0,0,1-.231-.231v-2.57a.205.205,0,0,1,.231-.232h3.521a.205.205,0,0,1,.231.232v2.57a.2.2,0,0,1-.231.231Z" transform="translate(-308.183 -243.456)" fill="#33479c"/>
      <path id="Path_1953" data-name="Path 1953" d="M442.611,282.233h1.83a1.161,1.161,0,0,0,.846-.267,1.353,1.353,0,0,0,.267-.961v-11a.2.2,0,0,1,.231-.231h3.474a.2.2,0,0,1,.231.231v12.6a3.279,3.279,0,0,1-.624,2.211,2.667,2.667,0,0,1-2.085.706H435.408a.2.2,0,0,1-.231-.231v-2.826a.2.2,0,0,1,.231-.231h3.265V273.27a.205.205,0,0,1,.233-.231h3.474a.2.2,0,0,1,.231.231Zm-3.938-12.275a2.108,2.108,0,0,1-.3-1.134,2.334,2.334,0,0,1,.163-.857,2.028,2.028,0,0,1,.5-.741,2.524,2.524,0,0,1,.821-.521,3.373,3.373,0,0,1,2.5.092,2.753,2.753,0,0,1,.9.683c.061.093.054.161-.023.208l-.789.9c-.061.062-.138.062-.231,0a1.535,1.535,0,0,0-1.065-.533.933.933,0,0,0-.59.209.8.8,0,0,0-.267.671.988.988,0,0,0,.2.625,1.5,1.5,0,0,0,.43.394h2.268c.093,0,.138.054.138.163v1.227c0,.109-.045.163-.138.163h-5.374c-.092,0-.138-.054-.138-.163v-1.227c0-.109.046-.163.138-.163Z" transform="translate(-310.405 -242.448)" fill="#33479c"/>
      <path id="Path_1954" data-name="Path 1954" d="M460.528,286.173a.2.2,0,0,1-.231.231h-3.474a.2.2,0,0,1-.233-.231V270.888a.2.2,0,0,1,.233-.231H460.3a.2.2,0,0,1,.231.231Z" transform="translate(-314.961 -243.331)" fill="#33479c"/>
    </g>
    <g id="Group_498" data-name="Group 498" transform="translate(428.606 235.945)">
      <path id="Path_1955" data-name="Path 1955" d="M534.528,277.959a16.306,16.306,0,0,1-1.341-1.2c-2.672-3.1-6.067-3.9-10.072-3.865-15.127.152-30.256.064-45.385.059-2.454,0-2.711-.271-2.712-2.757q0-13.045,0-26.088c0-2.506.341-2.856,2.832-2.857q14.072-.008,28.146,0,13.018,0,26.035.005c2.081,0,2.483.418,2.495,2.457.013,2.409-.046,4.819.021,7.227.053,1.916,1.156,3.013,2.769,2.945,1.542-.065,2.463-1.134,2.491-3,.034-2.35.015-4.7.008-7.051-.017-5.144-2.657-7.868-7.755-7.873q-27.267-.03-54.533,0c-5.082.006-7.785,2.777-7.79,7.877-.008,8.7.145,17.4-.061,26.087-.109,4.621,2.433,8.47,8.415,8.4,15.6-.185,31.194-.05,46.792-.082a4.8,4.8,0,0,1,3.633,1.381,29.17,29.17,0,0,0,3.835,3.351,4.75,4.75,0,0,0,7.41-3.633c.083-.993.052-2,.053-2.995,0-4.171.027-8.344-.021-12.514a2.506,2.506,0,0,0-2.547-2.761,2.568,2.568,0,0,0-2.668,2.5,10.623,10.623,0,0,0-.046,1.583C534.526,269.3,534.528,273.456,534.528,277.959Zm-34.3-8.182a2.753,2.753,0,0,0,2.633-2.167c2.309-6.367,4.646-12.723,6.943-19.094.682-1.893.084-3.4-1.443-3.913-1.573-.531-2.777.2-3.538,2.209-.888,2.347-1.748,4.706-2.6,7.066-1.472,4.062-2.973,8.114-4.378,12.2C497.14,268.108,498.291,269.782,500.224,269.777Zm14.8-4.048a2.911,2.911,0,0,0,2.02-.989c2.076-2.06,4.183-4.091,6.207-6.2a2.606,2.606,0,0,0-.038-4.038c-1.975-2.078-4.011-4.1-6.073-6.091-1.3-1.253-2.826-1.312-3.9-.284-1.168,1.115-1.117,2.614.205,4.035a36.277,36.277,0,0,0,3.108,3.094c1.08.909,1.253,1.558.057,2.547a37.234,37.234,0,0,0-3.476,3.468,2.447,2.447,0,0,0-.456,2.921A2.693,2.693,0,0,0,515.022,265.73Zm-19.185-15.67a2.448,2.448,0,0,0-1.523-2.414,2.6,2.6,0,0,0-3.058.653c-2.007,1.975-4,3.962-5.964,5.981-1.6,1.649-1.59,2.883.035,4.56q2.756,2.843,5.588,5.612c1.524,1.5,2.958,1.643,4.161.483,1.15-1.108,1.019-2.709-.389-4.174-1.137-1.185-2.288-2.359-3.484-3.481-.609-.572-.606-.933.02-1.509,1.249-1.151,2.412-2.4,3.613-3.6A2.77,2.77,0,0,0,495.836,250.059Z" transform="translate(-469.67 -235.945)" fill="#7dd9c2"/>
      <path id="Path_1956" data-name="Path 1956" d="M534.528,277.959c0-4.5,0-8.656,0-12.81a10.623,10.623,0,0,1,.046-1.583,2.568,2.568,0,0,1,2.668-2.5,2.506,2.506,0,0,1,2.547,2.761c.048,4.171.024,8.343.021,12.514,0,1,.03,2-.053,2.995a4.75,4.75,0,0,1-7.41,3.633,29.17,29.17,0,0,1-3.835-3.351,4.8,4.8,0,0,0-3.633-1.381c-15.6.032-31.2-.1-46.792.082-5.982.071-8.525-3.778-8.415-8.4.206-8.692.054-17.391.061-26.087,0-5.1,2.708-7.871,7.79-7.877q27.267-.031,54.533,0c5.1.005,7.738,2.729,7.755,7.873.007,2.351.026,4.7-.008,7.051-.028,1.87-.949,2.938-2.491,3-1.613.068-2.715-1.029-2.769-2.945-.067-2.407-.007-4.818-.021-7.227-.012-2.039-.414-2.454-2.495-2.457q-13.018-.019-26.035-.005-14.073,0-28.146,0c-2.491,0-2.831.351-2.832,2.857q0,13.045,0,26.088c0,2.486.258,2.756,2.712,2.757,15.129,0,30.258.093,45.385-.059,4-.04,7.4.764,10.072,3.865A16.306,16.306,0,0,0,534.528,277.959Z" transform="translate(-469.67 -235.945)" fill="#7dd9c2"/>
      <path id="Path_1957" data-name="Path 1957" d="M507.782,272.073c-1.933,0-3.084-1.671-2.386-3.7,1.4-4.085,2.906-8.137,4.378-12.2.855-2.36,1.715-4.719,2.6-7.066.76-2.009,1.965-2.74,3.538-2.209,1.527.515,2.125,2.019,1.443,3.913-2.3,6.371-4.634,12.727-6.943,19.094A2.754,2.754,0,0,1,507.782,272.073Z" transform="translate(-477.228 -238.24)" fill="#7dd9c2"/>
      <path id="Path_1958" data-name="Path 1958" d="M526.567,268.828a2.693,2.693,0,0,1-2.347-1.538,2.447,2.447,0,0,1,.456-2.921,37.262,37.262,0,0,1,3.476-3.468c1.2-.989,1.023-1.637-.057-2.547a36.251,36.251,0,0,1-3.108-3.094c-1.322-1.421-1.374-2.92-.205-4.035,1.076-1.028,2.607-.968,3.9.284,2.062,1.991,4.1,4.013,6.073,6.091a2.607,2.607,0,0,1,.038,4.038c-2.024,2.111-4.132,4.142-6.207,6.2A2.912,2.912,0,0,1,526.567,268.828Z" transform="translate(-481.214 -239.043)" fill="#7dd9c2"/>
      <path id="Path_1959" data-name="Path 1959" d="M499.736,253.154a2.769,2.769,0,0,1-1,2.109c-1.2,1.205-2.363,2.451-3.612,3.6-.626.576-.629.938-.02,1.509,1.2,1.123,2.348,2.3,3.484,3.481,1.407,1.465,1.539,3.066.389,4.174-1.2,1.16-2.637,1.015-4.161-.483q-2.824-2.776-5.589-5.612c-1.625-1.677-1.637-2.91-.035-4.56,1.962-2.019,3.957-4.006,5.964-5.981a2.6,2.6,0,0,1,3.057-.653A2.448,2.448,0,0,1,499.736,253.154Z" transform="translate(-473.57 -239.04)" fill="#7dd9c2"/>
    </g>
  </g>
</svg>
